<mxfile host="65bd71144e">
    <diagram id="qkjqWEbsuPFMeBHg_Ueu" name="Page-1">
        <mxGraphModel dx="838" dy="679" grid="1" gridSize="10" guides="1" tooltips="1" connect="1" arrows="1" fold="1" page="1" pageScale="1" pageWidth="850" pageHeight="1100" math="0" shadow="0">
            <root>
                <mxCell id="0"/>
                <mxCell id="1" parent="0"/>
                <mxCell id="100" value="" style="rounded=0;whiteSpace=wrap;html=1;fillColor=none;" vertex="1" parent="1">
                    <mxGeometry x="40" y="40" width="300" height="510" as="geometry"/>
                </mxCell>
                <mxCell id="2" value="" style="group" parent="1" vertex="1" connectable="0">
                    <mxGeometry x="60" y="90" width="90" height="90" as="geometry"/>
                </mxCell>
                <mxCell id="3" value="" style="whiteSpace=wrap;html=1;aspect=fixed;" parent="2" vertex="1">
                    <mxGeometry width="90" height="90" as="geometry"/>
                </mxCell>
                <mxCell id="4" value="" style="ellipse;whiteSpace=wrap;html=1;aspect=fixed;fillColor=#60a917;fontColor=#ffffff;strokeColor=#2D7600;" parent="2" vertex="1">
                    <mxGeometry x="5" y="50" width="20" height="20" as="geometry"/>
                </mxCell>
                <mxCell id="5" value="" style="ellipse;whiteSpace=wrap;html=1;aspect=fixed;fillColor=#fa6800;fontColor=#000000;strokeColor=#C73500;" parent="2" vertex="1">
                    <mxGeometry x="65" y="50" width="20" height="20" as="geometry"/>
                </mxCell>
                <mxCell id="6" value="" style="ellipse;whiteSpace=wrap;html=1;aspect=fixed;fillColor=#1ba1e2;fontColor=#ffffff;strokeColor=#006EAF;" parent="2" vertex="1">
                    <mxGeometry x="35" y="50" width="20" height="20" as="geometry"/>
                </mxCell>
                <mxCell id="7" value="" style="ellipse;whiteSpace=wrap;html=1;aspect=fixed;" parent="2" vertex="1">
                    <mxGeometry x="35" y="20" width="20" height="20" as="geometry"/>
                </mxCell>
                <mxCell id="8" value="" style="endArrow=oval;html=1;endFill=1;endSize=5;startSize=5;" parent="2" source="7" target="4" edge="1">
                    <mxGeometry width="50" height="50" relative="1" as="geometry">
                        <mxPoint x="-145" y="-175" as="sourcePoint"/>
                        <mxPoint x="-115" y="-100" as="targetPoint"/>
                    </mxGeometry>
                </mxCell>
                <mxCell id="9" value="" style="endArrow=oval;html=1;endFill=1;endSize=5;startSize=5;" parent="2" source="7" target="6" edge="1">
                    <mxGeometry width="50" height="50" relative="1" as="geometry">
                        <mxPoint x="-101.44568508158966" y="-155.3048314603003" as="sourcePoint"/>
                        <mxPoint x="-148.63501363726527" y="-114.78964171839527" as="targetPoint"/>
                    </mxGeometry>
                </mxCell>
                <mxCell id="10" value="" style="endArrow=oval;html=1;endFill=1;endSize=5;startSize=5;" parent="2" source="7" target="5" edge="1">
                    <mxGeometry width="50" height="50" relative="1" as="geometry">
                        <mxPoint x="-91.44568508158966" y="-145.3048314603003" as="sourcePoint"/>
                        <mxPoint x="-138.63501363726527" y="-104.78964171839527" as="targetPoint"/>
                    </mxGeometry>
                </mxCell>
                <mxCell id="11" value="" style="group" parent="1" vertex="1" connectable="0">
                    <mxGeometry x="230" y="90" width="90" height="90" as="geometry"/>
                </mxCell>
                <mxCell id="12" value="" style="whiteSpace=wrap;html=1;aspect=fixed;" parent="11" vertex="1">
                    <mxGeometry width="90" height="90" as="geometry"/>
                </mxCell>
                <mxCell id="13" value="" style="ellipse;whiteSpace=wrap;html=1;aspect=fixed;fillColor=#60a917;fontColor=#ffffff;strokeColor=#2D7600;" parent="11" vertex="1">
                    <mxGeometry x="20" y="65" width="20" height="20" as="geometry"/>
                </mxCell>
                <mxCell id="14" value="" style="ellipse;whiteSpace=wrap;html=1;aspect=fixed;fillColor=#fa6800;fontColor=#000000;strokeColor=#C73500;" parent="11" vertex="1">
                    <mxGeometry x="50" y="35" width="20" height="20" as="geometry"/>
                </mxCell>
                <mxCell id="15" style="edgeStyle=none;html=1;fontFamily=Courier New;startArrow=none;startFill=0;endArrow=oval;endFill=1;endSize=5;strokeWidth=1;startSize=5;" parent="11" source="16" target="13" edge="1">
                    <mxGeometry relative="1" as="geometry"/>
                </mxCell>
                <mxCell id="16" value="" style="ellipse;whiteSpace=wrap;html=1;aspect=fixed;fillColor=#1ba1e2;fontColor=#ffffff;strokeColor=#006EAF;" parent="11" vertex="1">
                    <mxGeometry x="20" y="35" width="20" height="20" as="geometry"/>
                </mxCell>
                <mxCell id="17" value="" style="ellipse;whiteSpace=wrap;html=1;aspect=fixed;" parent="11" vertex="1">
                    <mxGeometry x="20" y="5" width="20" height="20" as="geometry"/>
                </mxCell>
                <mxCell id="18" value="" style="endArrow=oval;html=1;endFill=1;endSize=5;startSize=5;" parent="11" source="17" target="16" edge="1">
                    <mxGeometry width="50" height="50" relative="1" as="geometry">
                        <mxPoint x="-116.44568508158966" y="-170.3048314603003" as="sourcePoint"/>
                        <mxPoint x="-163.63501363726527" y="-129.78964171839527" as="targetPoint"/>
                    </mxGeometry>
                </mxCell>
                <mxCell id="19" value="" style="endArrow=oval;html=1;endFill=1;endSize=5;startSize=5;" parent="11" source="17" target="14" edge="1">
                    <mxGeometry width="50" height="50" relative="1" as="geometry">
                        <mxPoint x="-106.44568508158966" y="-160.3048314603003" as="sourcePoint"/>
                        <mxPoint x="-153.63501363726527" y="-119.78964171839527" as="targetPoint"/>
                    </mxGeometry>
                </mxCell>
                <mxCell id="20" value="" style="group" parent="1" vertex="1" connectable="0">
                    <mxGeometry x="230" y="190" width="90" height="90" as="geometry"/>
                </mxCell>
                <mxCell id="21" value="" style="whiteSpace=wrap;html=1;aspect=fixed;" parent="20" vertex="1">
                    <mxGeometry width="90" height="90" as="geometry"/>
                </mxCell>
                <mxCell id="22" value="" style="ellipse;whiteSpace=wrap;html=1;aspect=fixed;fillColor=#60a917;fontColor=#ffffff;strokeColor=#2D7600;" parent="20" vertex="1">
                    <mxGeometry x="50" y="65" width="20" height="20" as="geometry"/>
                </mxCell>
                <mxCell id="23" style="edgeStyle=none;html=1;fontFamily=Courier New;startArrow=none;startFill=0;endArrow=oval;endFill=1;endSize=5;strokeWidth=1;startSize=5;" parent="20" source="24" target="22" edge="1">
                    <mxGeometry relative="1" as="geometry"/>
                </mxCell>
                <mxCell id="24" value="" style="ellipse;whiteSpace=wrap;html=1;aspect=fixed;fillColor=#fa6800;fontColor=#000000;strokeColor=#C73500;" parent="20" vertex="1">
                    <mxGeometry x="50" y="35" width="20" height="20" as="geometry"/>
                </mxCell>
                <mxCell id="25" value="" style="ellipse;whiteSpace=wrap;html=1;aspect=fixed;fillColor=#1ba1e2;fontColor=#ffffff;strokeColor=#006EAF;" parent="20" vertex="1">
                    <mxGeometry x="20" y="35" width="20" height="20" as="geometry"/>
                </mxCell>
                <mxCell id="26" value="" style="ellipse;whiteSpace=wrap;html=1;aspect=fixed;" parent="20" vertex="1">
                    <mxGeometry x="20" y="5" width="20" height="20" as="geometry"/>
                </mxCell>
                <mxCell id="27" value="" style="endArrow=oval;html=1;endFill=1;endSize=5;startSize=5;" parent="20" source="26" target="25" edge="1">
                    <mxGeometry width="50" height="50" relative="1" as="geometry">
                        <mxPoint x="-116.44568508158966" y="-170.3048314603003" as="sourcePoint"/>
                        <mxPoint x="-163.63501363726527" y="-129.78964171839527" as="targetPoint"/>
                    </mxGeometry>
                </mxCell>
                <mxCell id="28" value="" style="endArrow=oval;html=1;endFill=1;endSize=5;startSize=5;" parent="20" source="26" target="24" edge="1">
                    <mxGeometry width="50" height="50" relative="1" as="geometry">
                        <mxPoint x="-106.44568508158966" y="-160.3048314603003" as="sourcePoint"/>
                        <mxPoint x="-153.63501363726527" y="-119.78964171839527" as="targetPoint"/>
                    </mxGeometry>
                </mxCell>
                <mxCell id="29" value="" style="group" parent="1" vertex="1" connectable="0">
                    <mxGeometry x="196.5" y="340" width="90" height="90" as="geometry"/>
                </mxCell>
                <mxCell id="30" value="" style="whiteSpace=wrap;html=1;aspect=fixed;" parent="29" vertex="1">
                    <mxGeometry width="90" height="90" as="geometry"/>
                </mxCell>
                <mxCell id="31" value="" style="ellipse;whiteSpace=wrap;html=1;aspect=fixed;fillColor=#60a917;fontColor=#ffffff;strokeColor=#2D7600;" parent="29" vertex="1">
                    <mxGeometry x="35" y="65" width="20" height="20" as="geometry"/>
                </mxCell>
                <mxCell id="32" style="edgeStyle=none;html=1;fontFamily=Courier New;startArrow=none;startFill=0;endArrow=oval;endFill=1;endSize=5;strokeWidth=1;startSize=5;" parent="29" source="33" target="31" edge="1">
                    <mxGeometry relative="1" as="geometry">
                        <mxPoint x="60" y="65" as="targetPoint"/>
                    </mxGeometry>
                </mxCell>
                <mxCell id="33" value="" style="ellipse;whiteSpace=wrap;html=1;aspect=fixed;fillColor=#fa6800;fontColor=#000000;strokeColor=#C73500;" parent="29" vertex="1">
                    <mxGeometry x="50" y="35" width="20" height="20" as="geometry"/>
                </mxCell>
                <mxCell id="34" style="edgeStyle=none;html=1;fontFamily=Courier New;startArrow=none;startFill=0;endArrow=oval;endFill=1;endSize=5;strokeWidth=1;startSize=5;" parent="29" source="35" target="31" edge="1">
                    <mxGeometry relative="1" as="geometry"/>
                </mxCell>
                <mxCell id="35" value="" style="ellipse;whiteSpace=wrap;html=1;aspect=fixed;fillColor=#1ba1e2;fontColor=#ffffff;strokeColor=#006EAF;" parent="29" vertex="1">
                    <mxGeometry x="20" y="35" width="20" height="20" as="geometry"/>
                </mxCell>
                <mxCell id="36" value="" style="ellipse;whiteSpace=wrap;html=1;aspect=fixed;" parent="29" vertex="1">
                    <mxGeometry x="20" y="5" width="20" height="20" as="geometry"/>
                </mxCell>
                <mxCell id="37" value="" style="endArrow=oval;html=1;endFill=1;endSize=5;startSize=5;" parent="29" source="36" target="35" edge="1">
                    <mxGeometry width="50" height="50" relative="1" as="geometry">
                        <mxPoint x="-116.44568508158966" y="-170.3048314603003" as="sourcePoint"/>
                        <mxPoint x="-163.63501363726527" y="-129.78964171839527" as="targetPoint"/>
                    </mxGeometry>
                </mxCell>
                <mxCell id="38" value="" style="endArrow=oval;html=1;endFill=1;endSize=5;startSize=5;" parent="29" source="36" target="33" edge="1">
                    <mxGeometry width="50" height="50" relative="1" as="geometry">
                        <mxPoint x="-106.44568508158966" y="-160.3048314603003" as="sourcePoint"/>
                        <mxPoint x="-153.63501363726527" y="-119.78964171839527" as="targetPoint"/>
                    </mxGeometry>
                </mxCell>
                <mxCell id="39" value="" style="group" parent="1" vertex="1" connectable="0">
                    <mxGeometry x="196.5" y="440" width="90" height="90" as="geometry"/>
                </mxCell>
                <mxCell id="40" value="" style="whiteSpace=wrap;html=1;aspect=fixed;" parent="39" vertex="1">
                    <mxGeometry width="90" height="90" as="geometry"/>
                </mxCell>
                <mxCell id="41" value="" style="ellipse;whiteSpace=wrap;html=1;aspect=fixed;fillColor=#60a917;fontColor=#ffffff;strokeColor=#2D7600;" parent="39" vertex="1">
                    <mxGeometry x="50" y="65" width="20" height="20" as="geometry"/>
                </mxCell>
                <mxCell id="42" style="edgeStyle=none;html=1;fontFamily=Courier New;startArrow=none;startFill=0;endArrow=oval;endFill=1;endSize=5;strokeWidth=1;startSize=5;" parent="39" source="43" target="41" edge="1">
                    <mxGeometry relative="1" as="geometry"/>
                </mxCell>
                <mxCell id="43" value="" style="ellipse;whiteSpace=wrap;html=1;aspect=fixed;fillColor=#fa6800;fontColor=#000000;strokeColor=#C73500;" parent="39" vertex="1">
                    <mxGeometry x="50" y="35" width="20" height="20" as="geometry"/>
                </mxCell>
                <mxCell id="44" value="" style="ellipse;whiteSpace=wrap;html=1;aspect=fixed;fillColor=#1ba1e2;fontColor=#ffffff;strokeColor=#006EAF;" parent="39" vertex="1">
                    <mxGeometry x="20" y="35" width="20" height="20" as="geometry"/>
                </mxCell>
                <mxCell id="45" value="" style="ellipse;whiteSpace=wrap;html=1;aspect=fixed;" parent="39" vertex="1">
                    <mxGeometry x="20" y="5" width="20" height="20" as="geometry"/>
                </mxCell>
                <mxCell id="46" value="" style="endArrow=oval;html=1;endFill=1;endSize=5;startSize=5;" parent="39" source="45" target="44" edge="1">
                    <mxGeometry width="50" height="50" relative="1" as="geometry">
                        <mxPoint x="-116.44568508158966" y="-170.3048314603003" as="sourcePoint"/>
                        <mxPoint x="-163.63501363726527" y="-129.78964171839527" as="targetPoint"/>
                    </mxGeometry>
                </mxCell>
                <mxCell id="47" value="" style="endArrow=oval;html=1;endFill=1;endSize=5;startSize=5;" parent="39" source="45" target="43" edge="1">
                    <mxGeometry width="50" height="50" relative="1" as="geometry">
                        <mxPoint x="-106.44568508158966" y="-160.3048314603003" as="sourcePoint"/>
                        <mxPoint x="-153.63501363726527" y="-119.78964171839527" as="targetPoint"/>
                    </mxGeometry>
                </mxCell>
                <mxCell id="96" value="d" style="whiteSpace=wrap;html=1;" parent="39" vertex="1">
                    <mxGeometry x="70" width="20" height="20" as="geometry"/>
                </mxCell>
                <mxCell id="48" value="" style="group" parent="1" vertex="1" connectable="0">
                    <mxGeometry x="94" y="340" width="90" height="90" as="geometry"/>
                </mxCell>
                <mxCell id="49" value="" style="whiteSpace=wrap;html=1;aspect=fixed;" parent="48" vertex="1">
                    <mxGeometry width="90" height="90" as="geometry"/>
                </mxCell>
                <mxCell id="50" value="" style="ellipse;whiteSpace=wrap;html=1;aspect=fixed;fillColor=#60a917;fontColor=#ffffff;strokeColor=#2D7600;" parent="48" vertex="1">
                    <mxGeometry x="50" y="65" width="20" height="20" as="geometry"/>
                </mxCell>
                <mxCell id="51" value="" style="ellipse;whiteSpace=wrap;html=1;aspect=fixed;fillColor=#60a917;fontColor=#ffffff;strokeColor=#2D7600;" parent="48" vertex="1">
                    <mxGeometry x="20" y="65" width="20" height="20" as="geometry"/>
                </mxCell>
                <mxCell id="52" style="edgeStyle=none;html=1;fontFamily=Courier New;startArrow=none;startFill=0;endArrow=oval;endFill=1;endSize=5;strokeWidth=1;startSize=5;" parent="48" source="53" target="50" edge="1">
                    <mxGeometry relative="1" as="geometry"/>
                </mxCell>
                <mxCell id="53" value="" style="ellipse;whiteSpace=wrap;html=1;aspect=fixed;fillColor=#fa6800;fontColor=#000000;strokeColor=#C73500;" parent="48" vertex="1">
                    <mxGeometry x="50" y="35" width="20" height="20" as="geometry"/>
                </mxCell>
                <mxCell id="54" style="edgeStyle=none;html=1;fontFamily=Courier New;startArrow=none;startFill=0;endArrow=oval;endFill=1;endSize=5;strokeWidth=1;startSize=5;" parent="48" source="55" target="51" edge="1">
                    <mxGeometry relative="1" as="geometry"/>
                </mxCell>
                <mxCell id="55" value="" style="ellipse;whiteSpace=wrap;html=1;aspect=fixed;fillColor=#1ba1e2;fontColor=#ffffff;strokeColor=#006EAF;" parent="48" vertex="1">
                    <mxGeometry x="20" y="35" width="20" height="20" as="geometry"/>
                </mxCell>
                <mxCell id="56" value="" style="ellipse;whiteSpace=wrap;html=1;aspect=fixed;" parent="48" vertex="1">
                    <mxGeometry x="20" y="5" width="20" height="20" as="geometry"/>
                </mxCell>
                <mxCell id="57" value="" style="endArrow=oval;html=1;endFill=1;endSize=5;startSize=5;" parent="48" source="56" target="55" edge="1">
                    <mxGeometry width="50" height="50" relative="1" as="geometry">
                        <mxPoint x="-116.44568508158966" y="-170.3048314603003" as="sourcePoint"/>
                        <mxPoint x="-163.63501363726527" y="-129.78964171839527" as="targetPoint"/>
                    </mxGeometry>
                </mxCell>
                <mxCell id="58" value="" style="endArrow=oval;html=1;endFill=1;endSize=5;startSize=5;" parent="48" source="56" target="53" edge="1">
                    <mxGeometry width="50" height="50" relative="1" as="geometry">
                        <mxPoint x="-106.44568508158966" y="-160.3048314603003" as="sourcePoint"/>
                        <mxPoint x="-153.63501363726527" y="-119.78964171839527" as="targetPoint"/>
                    </mxGeometry>
                </mxCell>
                <mxCell id="59" value="" style="group" parent="1" vertex="1" connectable="0">
                    <mxGeometry x="94" y="440" width="90" height="90" as="geometry"/>
                </mxCell>
                <mxCell id="60" value="" style="whiteSpace=wrap;html=1;aspect=fixed;" parent="59" vertex="1">
                    <mxGeometry width="90" height="90" as="geometry"/>
                </mxCell>
                <mxCell id="61" value="" style="ellipse;whiteSpace=wrap;html=1;aspect=fixed;fillColor=#60a917;fontColor=#ffffff;strokeColor=#2D7600;" parent="59" vertex="1">
                    <mxGeometry x="50" y="65" width="20" height="20" as="geometry"/>
                </mxCell>
                <mxCell id="62" style="edgeStyle=none;html=1;fontFamily=Courier New;startArrow=none;startFill=0;endArrow=oval;endFill=1;endSize=5;strokeWidth=1;startSize=5;" parent="59" source="63" target="61" edge="1">
                    <mxGeometry relative="1" as="geometry"/>
                </mxCell>
                <mxCell id="63" value="" style="ellipse;whiteSpace=wrap;html=1;aspect=fixed;fillColor=#fa6800;fontColor=#000000;strokeColor=#C73500;" parent="59" vertex="1">
                    <mxGeometry x="50" y="35" width="20" height="20" as="geometry"/>
                </mxCell>
                <mxCell id="64" value="" style="ellipse;whiteSpace=wrap;html=1;aspect=fixed;fillColor=#1ba1e2;fontColor=#ffffff;strokeColor=#006EAF;" parent="59" vertex="1">
                    <mxGeometry x="20" y="35" width="20" height="20" as="geometry"/>
                </mxCell>
                <mxCell id="65" value="" style="ellipse;whiteSpace=wrap;html=1;aspect=fixed;" parent="59" vertex="1">
                    <mxGeometry x="20" y="5" width="20" height="20" as="geometry"/>
                </mxCell>
                <mxCell id="66" value="" style="endArrow=oval;html=1;endFill=1;endSize=5;startSize=5;" parent="59" source="65" target="64" edge="1">
                    <mxGeometry width="50" height="50" relative="1" as="geometry">
                        <mxPoint x="-116.44568508158966" y="-170.3048314603003" as="sourcePoint"/>
                        <mxPoint x="-163.63501363726527" y="-129.78964171839527" as="targetPoint"/>
                    </mxGeometry>
                </mxCell>
                <mxCell id="67" value="" style="endArrow=oval;html=1;endFill=1;endSize=5;startSize=5;" parent="59" source="65" target="63" edge="1">
                    <mxGeometry width="50" height="50" relative="1" as="geometry">
                        <mxPoint x="-106.44568508158966" y="-160.3048314603003" as="sourcePoint"/>
                        <mxPoint x="-153.63501363726527" y="-119.78964171839527" as="targetPoint"/>
                    </mxGeometry>
                </mxCell>
                <mxCell id="68" value="" style="group" parent="1" vertex="1" connectable="0">
                    <mxGeometry x="60" y="190" width="90" height="90" as="geometry"/>
                </mxCell>
                <mxCell id="69" value="" style="whiteSpace=wrap;html=1;aspect=fixed;" parent="68" vertex="1">
                    <mxGeometry width="90" height="90" as="geometry"/>
                </mxCell>
                <mxCell id="70" value="" style="ellipse;whiteSpace=wrap;html=1;aspect=fixed;fillColor=#60a917;fontColor=#ffffff;strokeColor=#2D7600;" parent="68" vertex="1">
                    <mxGeometry x="5" y="50" width="20" height="20" as="geometry"/>
                </mxCell>
                <mxCell id="71" value="" style="ellipse;whiteSpace=wrap;html=1;aspect=fixed;fillColor=#fa6800;fontColor=#000000;strokeColor=#C73500;" parent="68" vertex="1">
                    <mxGeometry x="65" y="50" width="20" height="20" as="geometry"/>
                </mxCell>
                <mxCell id="72" value="" style="ellipse;whiteSpace=wrap;html=1;aspect=fixed;fillColor=#1ba1e2;fontColor=#ffffff;strokeColor=#006EAF;" parent="68" vertex="1">
                    <mxGeometry x="35" y="50" width="20" height="20" as="geometry"/>
                </mxCell>
                <mxCell id="73" value="" style="ellipse;whiteSpace=wrap;html=1;aspect=fixed;" parent="68" vertex="1">
                    <mxGeometry x="35" y="20" width="20" height="20" as="geometry"/>
                </mxCell>
                <mxCell id="74" value="" style="endArrow=oval;html=1;endFill=1;endSize=5;startSize=5;" parent="68" source="73" target="70" edge="1">
                    <mxGeometry width="50" height="50" relative="1" as="geometry">
                        <mxPoint x="-145" y="-175" as="sourcePoint"/>
                        <mxPoint x="-115" y="-100" as="targetPoint"/>
                    </mxGeometry>
                </mxCell>
                <mxCell id="75" value="" style="endArrow=oval;html=1;endFill=1;endSize=5;startSize=5;" parent="68" source="73" target="72" edge="1">
                    <mxGeometry width="50" height="50" relative="1" as="geometry">
                        <mxPoint x="-101.44568508158966" y="-155.3048314603003" as="sourcePoint"/>
                        <mxPoint x="-148.63501363726527" y="-114.78964171839527" as="targetPoint"/>
                    </mxGeometry>
                </mxCell>
                <mxCell id="76" value="" style="endArrow=oval;html=1;endFill=1;endSize=5;startSize=5;" parent="68" source="73" target="71" edge="1">
                    <mxGeometry width="50" height="50" relative="1" as="geometry">
                        <mxPoint x="-91.44568508158966" y="-145.3048314603003" as="sourcePoint"/>
                        <mxPoint x="-138.63501363726527" y="-104.78964171839527" as="targetPoint"/>
                    </mxGeometry>
                </mxCell>
                <mxCell id="77" style="edgeStyle=none;html=1;fontFamily=Courier New;startArrow=none;startFill=0;endArrow=classic;endFill=1;endSize=4;strokeWidth=1;" parent="1" source="69" target="21" edge="1">
                    <mxGeometry relative="1" as="geometry"/>
                </mxCell>
                <mxCell id="78" value="" style="group" parent="1" vertex="1" connectable="0">
                    <mxGeometry x="189.99666666666667" y="209" width="25.333333333333258" height="23" as="geometry"/>
                </mxCell>
                <mxCell id="79" value="Make&amp;nbsp; &amp;nbsp; &amp;nbsp;a&lt;br&gt;child of&amp;nbsp; &amp;nbsp; &amp;nbsp;" style="edgeLabel;html=1;align=center;verticalAlign=middle;resizable=0;points=[];" parent="78" vertex="1" connectable="0">
                    <mxGeometry y="11.499999999999886" as="geometry"/>
                </mxCell>
                <mxCell id="80" value="" style="ellipse;whiteSpace=wrap;html=1;aspect=fixed;fillColor=#60a917;fontColor=#ffffff;strokeColor=#2D7600;" parent="78" vertex="1">
                    <mxGeometry x="6.3333333333332575" width="10" height="10" as="geometry"/>
                </mxCell>
                <mxCell id="81" value="" style="ellipse;whiteSpace=wrap;html=1;aspect=fixed;fillColor=#fa6800;fontColor=#000000;strokeColor=#C73500;" parent="78" vertex="1">
                    <mxGeometry x="15.333333333333258" y="13" width="10" height="10" as="geometry"/>
                </mxCell>
                <mxCell id="82" style="edgeStyle=none;html=1;fontFamily=Courier New;startArrow=none;startFill=0;endArrow=classic;endFill=1;endSize=4;strokeWidth=1;" parent="1" source="3" target="12" edge="1">
                    <mxGeometry relative="1" as="geometry"/>
                </mxCell>
                <mxCell id="83" value="" style="group" parent="1" vertex="1" connectable="0">
                    <mxGeometry x="189.99666666666667" y="109" width="25.333333333333258" height="23" as="geometry"/>
                </mxCell>
                <mxCell id="84" value="Make&amp;nbsp; &amp;nbsp; &amp;nbsp;a&lt;br&gt;child of&amp;nbsp; &amp;nbsp; &amp;nbsp;" style="edgeLabel;html=1;align=center;verticalAlign=middle;resizable=0;points=[];" parent="83" vertex="1" connectable="0">
                    <mxGeometry y="11.499999999999886" as="geometry"/>
                </mxCell>
                <mxCell id="85" value="" style="ellipse;whiteSpace=wrap;html=1;aspect=fixed;fillColor=#60a917;fontColor=#ffffff;strokeColor=#2D7600;" parent="83" vertex="1">
                    <mxGeometry x="6.3333333333332575" width="10" height="10" as="geometry"/>
                </mxCell>
                <mxCell id="86" value="" style="ellipse;whiteSpace=wrap;html=1;aspect=fixed;fillColor=#1ba1e2;fontColor=#ffffff;strokeColor=#006EAF;" parent="83" vertex="1">
                    <mxGeometry x="15.333333333333258" y="13" width="10" height="10" as="geometry"/>
                </mxCell>
                <mxCell id="87" value="" style="endArrow=none;html=1;endSize=4;strokeWidth=1;" parent="1" edge="1">
                    <mxGeometry width="50" height="50" relative="1" as="geometry">
                        <mxPoint x="320" y="330" as="sourcePoint"/>
                        <mxPoint x="60" y="330" as="targetPoint"/>
                    </mxGeometry>
                </mxCell>
                <mxCell id="88" value="Desired outcome" style="text;html=1;strokeColor=none;fillColor=none;align=center;verticalAlign=middle;whiteSpace=wrap;rounded=0;" parent="1" vertex="1">
                    <mxGeometry x="130" y="300" width="120" height="30" as="geometry"/>
                </mxCell>
                <mxCell id="89" value="&lt;font style=&quot;font-size: 10px&quot;&gt;Replica 2&lt;/font&gt;" style="text;html=1;strokeColor=none;fillColor=none;align=center;verticalAlign=middle;whiteSpace=wrap;rounded=0;" parent="1" vertex="1">
                    <mxGeometry x="160" y="233" width="60" height="27" as="geometry"/>
                </mxCell>
                <mxCell id="90" value="&lt;font style=&quot;font-size: 10px&quot;&gt;Replica 1&lt;/font&gt;" style="text;html=1;strokeColor=none;fillColor=none;align=center;verticalAlign=middle;whiteSpace=wrap;rounded=0;" parent="1" vertex="1">
                    <mxGeometry x="160" y="133" width="60" height="27" as="geometry"/>
                </mxCell>
                <mxCell id="95" value="c" style="whiteSpace=wrap;html=1;" parent="1" vertex="1">
                    <mxGeometry x="164" y="440" width="20" height="20" as="geometry"/>
                </mxCell>
                <mxCell id="97" value="b" style="whiteSpace=wrap;html=1;" parent="1" vertex="1">
                    <mxGeometry x="266.5" y="340" width="20" height="20" as="geometry"/>
                </mxCell>
                <mxCell id="98" value="a" style="whiteSpace=wrap;html=1;" parent="1" vertex="1">
                    <mxGeometry x="164" y="340" width="20" height="20" as="geometry"/>
                </mxCell>
                <mxCell id="101" value="" style="endArrow=none;html=1;endSize=4;strokeWidth=1;" edge="1" parent="1">
                    <mxGeometry width="50" height="50" relative="1" as="geometry">
                        <mxPoint x="320" y="80" as="sourcePoint"/>
                        <mxPoint x="60" y="80" as="targetPoint"/>
                    </mxGeometry>
                </mxCell>
                <mxCell id="102" value="Concurrent operations" style="text;html=1;strokeColor=none;fillColor=none;align=center;verticalAlign=middle;whiteSpace=wrap;rounded=0;" vertex="1" parent="1">
                    <mxGeometry x="110" y="50" width="160" height="30" as="geometry"/>
                </mxCell>
                <mxCell id="103" value="" style="rounded=0;whiteSpace=wrap;html=1;fillColor=none;strokeColor=none;" vertex="1" parent="1">
                    <mxGeometry x="40" width="300" height="600" as="geometry"/>
                </mxCell>
            </root>
        </mxGraphModel>
    </diagram>
</mxfile>